<?xml version="1.0" encoding="UTF-8" standalone="no"?>
<svg
   xmlns:dc="http://purl.org/dc/elements/1.1/"
   xmlns:cc="http://creativecommons.org/ns#"
   xmlns:rdf="http://www.w3.org/1999/02/22-rdf-syntax-ns#"
   xmlns:svg="http://www.w3.org/2000/svg"
   xmlns="http://www.w3.org/2000/svg"
   xmlns:sodipodi="http://sodipodi.sourceforge.net/DTD/sodipodi-0.dtd"
   xmlns:inkscape="http://www.inkscape.org/namespaces/inkscape"
   id="e1f19e5c-5557-4412-8bb7-7a6312267dc8"
   data-name="Layer 1"
   width="1145.7"
   height="817.62"
   viewBox="0 0 1145.7 817.62"
   version="1.1"
   sodipodi:docname="bg-img-1.svg"
   inkscape:version="0.92.3 (2405546, 2018-03-11)">
  <metadata
     id="metadata106">
    <rdf:RDF>
      <cc:Work
         rdf:about="">
        <dc:format>image/svg+xml</dc:format>
        <dc:type
           rdf:resource="http://purl.org/dc/dcmitype/StillImage" />
      </cc:Work>
    </rdf:RDF>
  </metadata>
  <sodipodi:namedview
     pagecolor="#ffffff"
     bordercolor="#666666"
     borderopacity="1"
     objecttolerance="10"
     gridtolerance="10"
     guidetolerance="10"
     inkscape:pageopacity="0"
     inkscape:pageshadow="2"
     inkscape:window-width="1366"
     inkscape:window-height="715"
     id="namedview104"
     showgrid="false"
     inkscape:zoom="0.4957668"
     inkscape:cx="429.29063"
     inkscape:cy="443.52042"
     inkscape:window-x="-8"
     inkscape:window-y="22"
     inkscape:window-maximized="1"
     inkscape:current-layer="g958" />
  <defs
     id="defs9">
    <linearGradient
       id="bd020c25-3c8c-4c56-bf4e-8fd3789f73bb"
       x1="625"
       y1="842.81"
       x2="625"
       y2="429.81"
       gradientUnits="userSpaceOnUse"
       gradientTransform="matrix(0.8070298,0,0,0.8070298,153.27338,99.685374)">
      <stop
         offset="0"
         stop-color="gray"
         stop-opacity="0.25"
         id="stop2" />
      <stop
         offset="0.54"
         stop-color="gray"
         stop-opacity="0.12"
         id="stop4" />
      <stop
         offset="1"
         stop-color="gray"
         stop-opacity="0.1"
         id="stop6" />
    </linearGradient>
  </defs>
  <title
     id="title11">to do</title>
  <g
     id="g958"
     transform="matrix(0.53072819,0,0,0.53072819,388.21305,192.75695)"
     style="opacity:1">
    <g
       id="g931">
      <path
         transform="matrix(1.8842037,0,0,1.8842037,-731.47245,-363.19335)"
         style="opacity:0.1;fill:#6c63ff;stroke-width:0.64683139"
         inkscape:connector-curvature="0"
         d="M 1137.1422,434.87069 A 173.38961,173.38961 0 0 1 936.30759,605.97052 H 661.59184 a 235.48543,235.48543 0 0 1 -32.01815,2.18628 c -104.36623,0 -192.75574,-68.47356 -222.65228,-162.94328 a 233.35734,233.35734 0 0 1 -10.85384,-70.56283 c 0,-128.96525 104.54736,-233.50612 233.50612,-233.50612 103.86171,0 191.86959,67.79439 222.19951,161.58493 a 172.60047,172.60047 0 0 1 112.11529,-41.14494 c 95.67281,0 173.25371,77.58096 173.25371,173.28613 z"
         id="path13-0" />
      <path
         style="opacity:0.1;fill:#6c63ff;stroke-width:0.83956349"
         inkscape:connector-curvature="0"
         d="M 1188.2855,512.42188 A 225.05339,225.05339 0 0 1 927.60941,734.50321 H 571.0384 a 305.65148,305.65148 0 0 1 -41.55839,2.83773 c -135.46357,0 -250.18992,-88.87619 -288.99454,-211.49444 a 302.88932,302.88932 0 0 1 -14.08788,-91.58798 c 0,-167.39217 135.69865,-303.08242 303.08242,-303.08242 134.80871,0 249.03972,87.99465 288.40685,209.73136 A 224.02912,224.02912 0 0 1 963.4084,287.50283 c 124.1798,0 224.8771,100.69724 224.8771,224.91905 z"
         id="path13" />
      <path
         style="opacity:0.1;fill:#6c63ff;stroke-width:0.83956349"
         inkscape:connector-curvature="0"
         d="M 1101.886,689.62855 A 225.26328,225.26328 0 0 1 927.60941,734.50321 H 571.0384 a 305.65148,305.65148 0 0 1 -41.55839,2.83773 c -135.46357,0 -250.18992,-88.87619 -288.99454,-211.49444 29.02371,-62.03534 103.61053,-106.17959 191.05946,-106.17959 85.21569,0 158.21574,41.9278 188.74227,101.47804 a 253.39705,253.39705 0 0 1 45.49594,-4.08868 c 88.32208,0 163.52178,45.04258 191.91582,108.06022 a 248.20015,248.20015 0 0 1 72.54668,-10.67085 c 72.03456,0 135.34606,29.95562 171.64036,75.18291 z"
         id="path15" />
      <rect
         style="fill:#ffffff;stroke-width:0.83956349"
         x="457.57141"
         y="397.83826"
         width="397.95309"
         height="31.063848"
         id="rect17" />
      <rect
         style="fill:#ffffff;stroke-width:0.83956349"
         x="457.57141"
         y="465.00333"
         width="397.95309"
         height="31.063848"
         id="rect19" />
      <rect
         style="fill:#ffffff;stroke-width:0.83956349"
         x="457.57141"
         y="532.1684"
         width="397.95309"
         height="31.063848"
         id="rect21" />
      <path
         style="fill:#3acc6c;stroke-width:0.83956349"
         inkscape:connector-curvature="0"
         d="m 935.80355,410.91866 -2.1157,2.1157 6.80046,6.80046 15.11215,-15.11214 -2.1157,-2.1157 -12.99645,12.92088 z m 18.28569,2.8713 a 12.03934,12.03934 0 1 1 -8.76504,-11.59437 l 2.34238,-2.34238 a 14.054293,14.054293 0 0 0 -5.66705,-1.13341 15.112143,15.112143 0 1 0 15.11214,15.11214 z"
         id="path23" />
      <path
         style="fill:#3acc6c;stroke-width:0.83956349"
         inkscape:connector-curvature="0"
         d="m 935.80355,478.08374 -2.1157,2.1157 6.80046,6.80046 15.11215,-15.11214 -2.1157,-2.1157 -12.99645,12.92088 z m 18.28569,2.8713 a 12.03934,12.03934 0 1 1 -8.76504,-11.59437 l 2.34238,-2.34238 a 14.054293,14.054293 0 0 0 -5.66705,-1.13341 15.112143,15.112143 0 1 0 15.11214,15.11214 z"
         id="path25" />
      <ellipse
         style="opacity:0.1;fill:#6c63ff;stroke-width:0.83956349"
         cx="707.76129"
         cy="796.21112"
         rx="428.17737"
         ry="21.408869"
         id="ellipse27" />
      <path
         style="opacity:0.1;fill:#6c63ff;stroke-width:0.83956349"
         inkscape:connector-curvature="0"
         d="m 989.03187,340.62201 a 6.3303087,6.3303087 0 0 1 -1.1418,-3.52617 c 0,-7.64842 15.59913,-13.8528 34.84193,-13.8528 19.2427,0 34.8418,6.20438 34.8418,13.8528 a 6.5653864,6.5653864 0 0 1 -1.444,3.93755 c 21.4256,2.38436 35.8661,6.86763 35.8661,12.01416 0,7.64842 -31.9537,13.85279 -71.3629,13.85279 -39.40907,0 -71.36285,-6.20437 -71.36285,-13.85279 0,-5.42358 16.20357,-10.15872 39.76172,-12.42554 z"
         id="path29" />
      <path
         style="opacity:0.1;fill:#6c63ff;stroke-width:0.83956349"
         inkscape:connector-curvature="0"
         d="m 863.87815,193.68161 a 5.2304805,5.2304805 0 0 1 -0.93192,-2.87971 c 0,-6.24635 12.72778,-11.30052 28.41922,-11.30052 15.69145,0 28.42762,5.03738 28.42762,11.30052 a 5.3480194,5.3480194 0 0 1 -1.16699,3.20714 c 17.47132,1.95618 29.25039,5.60828 29.25039,9.8061 0,6.23795 -26.02647,11.30052 -58.21533,11.30052 -32.18886,0 -58.22373,-5.03738 -58.22373,-11.30052 0,-4.44969 13.22313,-8.28649 32.44074,-10.13353 z"
         id="path31" />
      <path
         style="opacity:0.1;fill:#6c63ff;stroke-width:0.83956349"
         inkscape:connector-curvature="0"
         d="m 482.98498,247.9258 a 6.2883305,6.2883305 0 0 1 -1.88062,-3.19034 c -1.67912,-7.47211 12.20726,-16.9172 30.98829,-21.09823 18.78104,-4.18103 35.36241,-1.528 37.02475,5.94411 a 6.5821777,6.5821777 0 0 1 -0.54572,4.15584 c 21.42566,-2.32559 36.49583,-1.09143 37.61245,3.92916 1.67912,7.46372 -28.17575,20.46855 -66.64455,29.0321 -38.4688,8.56355 -71.00189,9.47028 -72.66422,1.99816 -1.18379,-5.31443 13.63451,-13.42462 36.10962,-20.7708 z"
         id="path33" />
      <path
         style="opacity:0.1;fill:none;stroke:#6c63ff;stroke-width:2.51869035;stroke-miterlimit:10"
         inkscape:connector-curvature="0"
         d="m 398.15549,240.83989 c -1.95618,-1.13341 -4.60081,-0.0504 -5.94411,1.77148 -1.3433,1.82185 -1.7211,4.19781 -2.05693,6.40587 -0.74721,4.96182 -1.29293,10.66245 2.05693,14.4069 -5.47395,-16.59817 -21.21577,-29.31755 -38.61992,-31.17299"
         stroke-miterlimit="10"
         id="path35" />
      <path
         style="opacity:0.1;fill:none;stroke:#6c63ff;stroke-width:2.51869035;stroke-miterlimit:10"
         inkscape:connector-curvature="0"
         d="m 568.61206,319.12918 c -1.25934,-0.73042 -2.95526,0 -3.82001,1.14181 a 9.0924725,9.0924725 0 0 0 -1.32651,4.11386 c -0.47855,3.19874 -0.83956,6.85923 1.32651,9.2352 a 30.106746,30.106746 0 0 0 -24.8091,-20.04038"
         stroke-miterlimit="10"
         id="path37" />
      <path
         style="opacity:0.1;fill:none;stroke:#6c63ff;stroke-width:2.51869035;stroke-miterlimit:10"
         inkscape:connector-curvature="0"
         d="m 846.0878,269.35986 c -1.25935,-0.72203 -2.95527,0 -3.82002,1.1418 a 9.0924725,9.0924725 0 0 0 -1.32651,4.12226 c -0.47855,3.19034 -0.83956,6.85084 1.32651,9.2352 a 30.123538,30.123538 0 0 0 -24.8091,-20.04038"
         stroke-miterlimit="10"
         id="path39" />
      <path
         style="opacity:0.1;stroke-width:0.83956349"
         inkscape:connector-curvature="0"
         d="m 398.08833,775.16327 a 31.063849,31.063849 0 0 1 -0.67166,6.51502 c -0.084,0.40299 -0.1763,0.83956 -0.26866,1.18378 -0.28545,0 -0.5625,0 -0.83956,0 a 38.418425,38.418425 0 0 1 -6.17919,-0.83956 37.713192,37.713192 0 0 1 -5.50753,1.25934 38.510777,38.510777 0 0 1 -4.31536,0.40299 h -1.46084 a 38.964141,38.964141 0 0 1 -5.17171,-0.34422 37.923082,37.923082 0 0 1 -8.11858,-2.01495 38.250512,38.250512 0 0 1 -4.38252,1.17539 c -0.0672,-0.26866 -0.12594,-0.53732 -0.18471,-0.83956 a 31.063849,31.063849 0 0 1 -0.67165,-6.51502 c 0,-13.6597 8.45441,-24.72514 18.89018,-24.72514 10.43578,0 18.88179,11.10742 18.88179,24.74193 z"
         id="path43" />
      <path
         style="opacity:0.86699997;fill:#6c63ff;stroke-width:0.83956349"
         inkscape:connector-curvature="0"
         d="m 438.38737,751.66741 a 38.233721,38.233721 0 0 0 -4.11386,-17.3034 l -22.21485,6.9096 19.50306,-11.46843 a 38.393238,38.393238 0 0 0 -28.8474,-16.43866 38.326073,38.326073 0 0 0 -2.99724,-3.96274 l -31.90341,9.93204 26.16919,-15.3892 a 38.393238,38.393238 0 0 0 -60.44857,20.47695 l 27.32779,31.45845 -29.64499,-21.44245 a 38.401634,38.401634 0 0 0 34.36334,67.75277 38.552755,38.552755 0 0 0 24.58242,0.68005 38.435216,38.435216 0 0 0 46.69652,-37.49491 c 0,-0.83956 0,-1.67913 -0.084,-2.51869 a 38.309282,38.309282 0 0 0 1.61196,-11.19138 z"
         id="path45" />
      <path
         style="opacity:0.18000004;stroke-width:0.83956349"
         inkscape:connector-curvature="0"
         d="M 437.72412,758.78691 A 102.34279,102.34279 0 0 0 402.177,758.33354 c -13.34066,2.20806 -26.97518,7.06073 -40.02199,3.51777 -7.65682,-2.08211 -14.27258,-6.90121 -21.75309,-9.57941 a 41.289732,41.289732 0 0 0 -22.45832,-1.34331 38.418425,38.418425 0 0 0 47.59485,51.26375 38.552755,38.552755 0 0 0 24.58242,0.68005 38.435216,38.435216 0 0 0 46.69652,-37.49491 c 0,-0.83956 0,-1.67913 -0.084,-2.51869 a 37.939874,37.939874 0 0 0 0.99069,-4.07188 z"
         id="path47" />
      <path
         style="opacity:0.75499998;fill:#6c63ff;stroke-width:0.83956349"
         inkscape:connector-curvature="0"
         d="m 1077.589,733.05917 34.2374,-20.14953 a 82.571068,82.571068 0 0 0 -17.5049,-20.98909 l -64.5876,20.14953 50.6089,-29.75413 a 82.277221,82.277221 0 0 0 -121.80387,72.20246 c 0,45.43717 36.84004,47.01555 82.27717,47.01555 45.4372,0 82.2773,-1.57838 82.2773,-47.01555 a 81.983374,81.983374 0 0 0 -7.0608,-33.38105 z"
         id="path49" />
      <path
         style="opacity:0.16499999;stroke-width:0.83956349"
         inkscape:connector-curvature="0"
         d="m 1086.2617,777.2286 c -3.4926,-3.78643 -7.8331,-6.71651 -12.1317,-9.52905 -6.2211,-4.12225 -12.6522,-8.33686 -19.9732,-9.73893 -6.4394,-1.23416 -13.0804,-0.1931 -19.6206,-0.57091 a 45.856957,45.856957 0 0 1 -30.0648,-13.77723 c -4.67632,-4.83589 -8.35361,-10.7716 -13.97869,-14.46568 -6.06164,-3.97953 -13.75205,-4.83589 -20.93871,-3.8452 a 55.503542,55.503542 0 0 0 -6.19598,1.26774 82.050539,82.050539 0 0 0 -4.86107,27.91549 c 0,45.43717 36.84005,47.01555 82.27725,47.01555 22.0469,0 42.0705,-0.36941 56.8468,-5.94411 l -2.4683,-4.6176 c -2.5691,-4.81909 -5.1885,-9.68856 -8.891,-13.71007 z"
         id="path51" />
      <path
         inkscape:connector-curvature="0"
         style="fill:url(#bd020c25-3c8c-4c56-bf4e-8fd3789f73bb);stroke-width:0.80702978"
         d="m 715.20018,772.90155 a 5.8993879,5.8993879 0 0 0 -2.21933,-3.17971 c -0.1292,-0.0884 -0.26637,-0.16947 -0.40353,-0.25022 a 9.9506775,9.9506775 0 0 0 -3.5671,-0.91194 c -4.63236,-0.59713 -9.49868,-1.49301 -13.00927,-4.52738 -1.0169,-0.87964 -1.88039,-1.90463 -2.81654,-2.84886 a 50.100409,50.100409 0 0 0 -6.39982,-5.17306 2.2919646,2.2919646 0 0 0 -1.66247,-0.61328 8.0702979,8.0702979 0 0 1 -2.12244,-2.54221 9.74892,9.74892 0 0 1 -0.69403,-3.94632 c -0.46812,-13.71952 -3.38148,-27.82644 -0.14534,-41.15858 a 8.0218761,8.0218761 0 0 0 -0.27434,-4.52738 c 0.65365,-0.29867 1.3074,-0.6053 1.95297,-0.93616 a 48.082835,48.082835 0 0 0 14.34098,-11.50019 22.346655,22.346655 0 0 0 4.36599,-6.884 c 1.21867,-3.42176 1.04113,-7.16639 0.6053,-10.7657 a 164.77127,164.77127 0 0 0 -3.80117,-18.82809 l -3.70417,-15.33355 c -0.80707,-3.37332 -1.70285,-6.83555 -3.49452,-9.7812 h 0.16956 c -0.12112,-1.70285 -0.25021,-3.4056 -0.50043,-5.09231 a 71.825652,71.825652 0 0 0 -2.17896,-9.07909 c -0.32279,-1.12986 -0.57299,-2.70361 -0.94423,-4.22076 0.6698,-6.88398 3.34919,-13.5662 3.80117,-20.42597 0.14523,0.19369 0.2824,0.38739 0.43573,0.58108 1.1137,1.38814 2.64709,2.4211 3.77694,3.76886 2.11436,2.56634 2.59056,6.03655 3.03437,9.305 a 15.196371,15.196371 0 0 0 1.25098,4.93909 16.237439,16.237439 0 0 1 1.02488,2.00949 c 0.46812,1.39612 0.12102,2.91335 -0.1614,4.36599 -0.39545,2.06601 -0.54878,4.47096 0.94424,5.98013 a 4.7291946,4.7291946 0 0 0 2.9618,1.31547 6.609574,6.609574 0 0 0 5.64916,-2.49378 c 1.52532,-1.97719 1.74324,-4.63236 1.67863,-7.10987 a 16.414986,16.414986 0 0 0 -0.90386,-5.48787 28.681839,28.681839 0 0 0 -3.0909,-5.24564 c -2.1629,-3.3411 -3.75271,-6.99693 -5.53621,-10.54788 a 60.236703,60.236703 0 0 0 -4.91487,-8.32048 c -1.00873,-1.40428 -2.10629,-2.75196 -3.01015,-4.21267 -0.29866,-0.48428 -1.77552,-4.09166 -3.1555,-7.69913 0.71017,-0.14524 1.44457,-0.43574 1.61404,-1.09756 a 2.114418,2.114418 0 0 0 -0.12102,-1.15407 69.590179,69.590179 0 0 1 -1.61413,-32.07939 c 0.53263,-2.88922 1.25096,-5.77028 1.24289,-8.69979 -0.009,-2.9295 -0.80706,-6.01241 -2.9618,-8.07026 -1.32355,-1.26711 -3.05062,-2.06601 -4.42251,-3.27661 -2.63902,-2.34035 -3.6962,-5.93167 -4.37418,-9.36958 a 13.356344,13.356344 0 0 0 -1.47685,-4.60813 7.0050186,7.0050186 0 0 0 -0.71018,-0.90387 46.000697,46.000697 0 0 0 2.85693,-16.06795 46.912642,46.912642 0 0 0 -1.61412,-12.18614 c 0.43582,1.0814 0.80707,2.18703 1.20252,3.31688 -3.37342,-17.60941 -16.58453,-30.74787 -32.3619,-30.74787 h -0.43583 c -17.89184,0 -32.48293,16.89117 -33.17694,38.04337 a 21.789804,21.789804 0 0 0 -9.83771,21.53967 21.69296,21.69296 0 0 0 -6.35137,15.33357 22.128757,22.128757 0 0 0 22.28215,21.96732 22.403147,22.403147 0 0 0 10.74157,-2.74387 37.010386,37.010386 0 0 0 0.97644,5.39096 c 0.74247,2.80839 1.88848,5.52007 2.4211,8.36884 0.53262,2.84885 0.50033,5.98011 -1.0491,8.44966 a 21.499274,21.499274 0 0 0 -2.78427,6.2141 29.860102,29.860102 0 0 0 -0.49226,8.07026 c 0.073,2.46954 0.13717,4.93102 0.20975,7.40046 0.27444,9.6844 0.54081,19.36879 -1.42034,28.87555 -0.88771,4.30957 -3.13127,8.40122 -2.62287,12.77529 a 18.279225,18.279225 0 0 0 1.37199,4.60005 c 0.80707,2.11447 1.85618,4.39022 3.90604,5.4152 a 7.9250326,7.9250326 0 0 0 3.17971,0.68595 22.120687,22.120687 0 0 0 4.03515,-0.17753 c 0.80696,-0.11299 1.89653,-0.65366 1.61402,-1.42843 a 1.5172159,1.5172159 0 0 0 -0.58107,-0.63759 8.9176792,8.9176792 0 0 1 -3.38947,-6.94848 c 0,-3.82531 2.54213,-7.51342 1.75929,-11.29844 -0.49226,-2.32421 -2.23549,-4.57583 -1.50109,-6.83554 1.61404,-5.10846 1.85618,-10.58825 3.22817,-15.76939 0.45995,-1.6867 0.92001,-3.38138 1.38804,-5.06809 0.80707,-3.01832 1.61403,-6.04472 2.31623,-9.09524 a 97.795868,97.795868 0 0 0 2.4533,-22.20139 24.307737,24.307737 0 0 1 2.63901,7.71517 c 0.24214,1.96114 0.11299,4.03513 1.03296,5.78643 0.9201,1.7512 2.74398,3.03447 3.83346,4.72109 a 27.140412,27.140412 0 0 1 -1.52532,2.97795 41.352207,41.352207 0 0 0 -3.12318,4.6162 c -0.80707,1.61413 -1.372,3.27661 -2.05794,4.91487 -2.30008,5.50392 -6.24639,10.49135 -6.81939,16.42303 -0.46814,4.76953 1.33969,9.43419 3.17164,13.86478 q 1.61403,3.97054 3.34918,7.90887 c 0.073,0.16947 0.15332,0.35508 0.24204,0.52455 0.13727,1.34777 0.31481,2.68746 0.49236,4.03514 h 2.96179 c 1.21051,1.61413 2.55828,3.22815 3.2846,5.10856 a 16.447268,16.447268 0 0 1 0.80706,4.51124 c 0.58906,7.26329 0.47611,14.71221 3.22807,21.46699 0.80706,2.0095 1.61404,4.03524 1.69477,6.07693 a 23.678255,23.678255 0 0 0 0.80707,5.03589 25.47793,25.47793 0 0 1 0.64558,5.42327 85.004449,85.004449 0 0 1 -0.24214,9.40188 c -6.45624,4.03513 -11.83106,9.86194 -17.64162,14.9058 a 97.085687,97.085687 0 0 1 -26.90642,16.51994 c 0,-0.15331 0,-0.31472 0,-0.46803 -2.76003,-0.1292 -5.39098,0.80696 -7.89272,2.09014 -0.87965,0.43583 -1.73516,0.90386 -2.5825,1.36392 a 4.3014689,4.3014689 0 0 0 -1.25088,0.88771 c -1.12985,1.31547 -0.30673,3.30881 0.55686,4.8422 q 4.30947,7.5457 8.61905,15.07527 c 0.66181,1.16215 1.33161,2.33238 1.88039,3.55095 0.93615,2.07409 1.53338,4.27727 2.58249,6.29483 a 31.183631,31.183631 0 0 0 4.45481,5.94783 q 2.80848,3.22806 5.64917,6.38356 a 7.4973068,7.4973068 0 0 0 2.1629,1.90462 2.6309171,2.6309171 0 0 0 2.75197,-0.12102 2.7681121,2.7681121 0 0 0 0.71824,-0.97653 5.9558799,5.9558799 0 0 0 0.58108,-2.91336 6.2060591,6.2060591 0 0 0 -2.04179,-4.31764 c -0.80707,-0.66979 -1.77553,-1.21857 -2.10639,-2.17895 a 3.9221648,3.9221648 0 0 1 -0.0968,-1.61404 c 0.40344,-4.75348 0.80697,-9.55531 2.22741,-14.10692 1.06525,-3.4057 2.71966,-6.9082 1.92875,-10.38649 a 9.7569907,9.7569907 0 0 0 -1.61404,-0.347 23.686324,23.686324 0 0 1 1.75928,-1.84003 c 2.85693,-2.67939 6.3352,-4.62428 9.77321,-6.53697 l 15.17207,-8.45765 q 1.04921,5.8268 2.12253,11.62929 c 0.25022,1.33968 0.49226,2.67938 0.7344,4.03513 l 3.40571,18.54558 a 41.053605,41.053605 0 0 1 0.65364,4.52748 c 0.0969,1.50098 0,3.00208 0,4.49509 a 33.435244,33.435244 0 0 1 -0.29856,5.01167 21.200673,21.200673 0 0 1 -0.71825,2.75196 h -0.1131 a 1.7835359,1.7835359 0 0 0 -0.64557,0.94423 25.017924,25.017924 0 0 0 -1.88847,6.9727 8.8773278,8.8773278 0 0 0 1.12986,5.49595 2.2112616,2.2112616 0 0 0 0.80697,0.89579 2.6874093,2.6874093 0 0 0 1.29124,0.18562 l 19.94178,-0.41968 a 43.813647,43.813647 0 0 1 7.35203,0.26636 c 1.93682,0.29049 3.84143,0.80696 5.7944,0.96038 4.54364,0.27434 8.87733,-1.77552 12.91257,-3.76886 a 3.2281191,3.2281191 0 0 0 1.61403,-1.24281 2.5905656,2.5905656 0 0 0 0.0163,-1.90461 z"
         id="path53" />
      <path
         style="fill:#3f3d56;stroke-width:0.80702978"
         inkscape:connector-curvature="0"
         d="m 608.62379,508.0989 a 22.395077,22.395077 0 0 1 -0.226,-3.14742 21.789804,21.789804 0 0 1 9.86194,-18.23883 c 0.67787,-20.98283 14.95425,-37.7771 32.46687,-37.7771 17.94825,0 32.49906,17.61749 32.49906,39.34268 0,21.72529 -14.52659,39.33471 -32.49906,39.33471 a 27.535856,27.535856 0 0 1 -5.04397,-0.46813 21.789804,21.789804 0 1 1 -37.05884,-19.04591 z"
         id="path55" />
      <path
         style="opacity:0.1;stroke-width:0.80702978"
         inkscape:connector-curvature="0"
         d="m 652.43743,454.06823 c -17.51252,0 -31.7889,16.77015 -32.46678,37.76903 a 21.789804,21.789804 0 0 0 -9.86193,18.24691 22.596834,22.596834 0 0 0 0.22599,3.14742 21.733313,21.733313 0 0 0 -6.21409,15.23676 22.935787,22.935787 0 0 0 0.16946,2.70352 21.789804,21.789804 0 0 1 4.76146,-23.07297 22.395077,22.395077 0 0 1 -0.22599,-3.14742 21.789804,21.789804 0 0 1 9.86194,-18.23883 c 0.67787,-20.98283 14.95424,-37.7771 32.46676,-37.7771 15.44661,0 28.37522,13.04973 31.67596,30.53802 -4.64044,-14.84938 -16.49572,-25.40534 -30.39278,-25.40534 z"
         id="path57" />
      <path
         style="fill:#a0616a;stroke-width:0.80702978"
         inkscape:connector-curvature="0"
         d="m 670.73279,496.46961 a 8.3124069,8.3124069 0 0 0 0.41969,3.80924 c 0.75054,1.73506 2.59056,3.28459 2.04986,5.09231 -0.34702,1.17023 -1.61404,1.8158 -2.72775,2.20319 -5.45556,1.8481 -11.41147,0.75054 -17.1655,1.00076 a 55.152415,55.152415 0 0 1 -5.77028,0.20176 9.2162803,9.2162803 0 0 1 -5.36675,-1.87231 46.065261,46.065261 0 0 0 8.44149,-5.3184 9.5390922,9.5390922 0 0 0 1.69479,-1.61404 c 1.22665,-1.61403 1.41226,-3.76877 1.48493,-5.79441 0.073,-2.02574 0.0567,-4.03523 0,-6.02049 q 6.18986,-0.0731 12.35561,-0.0567 c 1.32354,0 5.35867,-0.32279 5.81873,1.10562 0.23397,0.71017 -0.65374,2.79234 -0.80707,3.59133 -0.20984,1.21857 -0.347,2.44522 -0.42775,3.67196 z"
         id="path59" />
      <path
         style="opacity:0.1;stroke-width:0.80702978"
         inkscape:connector-curvature="0"
         d="m 670.73279,496.46961 a 8.3124069,8.3124069 0 0 0 0.41969,3.80924 c 0.75054,1.73506 2.59056,3.28459 2.04986,5.09231 -0.34702,1.17023 -1.61404,1.8158 -2.72775,2.20319 -5.45556,1.8481 -11.41147,0.75054 -17.1655,1.00076 a 55.152415,55.152415 0 0 1 -5.77028,0.20176 9.2162803,9.2162803 0 0 1 -5.36675,-1.87231 46.065261,46.065261 0 0 0 8.44149,-5.3184 9.5390922,9.5390922 0 0 0 1.69479,-1.61404 c 1.22665,-1.61403 1.41226,-3.76877 1.48493,-5.79441 0.073,-2.02574 0.0567,-4.03523 0,-6.02049 q 6.18986,-0.0731 12.35561,-0.0567 c 1.32354,0 5.35867,-0.32279 5.81873,1.10562 0.23397,0.71017 -0.65374,2.79234 -0.80707,3.59133 -0.20984,1.21857 -0.347,2.44522 -0.42775,3.67196 z"
         id="path61" />
      <path
         style="fill:#a0616a;stroke-width:0.80702978"
         inkscape:connector-curvature="0"
         d="m 691.23941,571.15214 a 27.761824,27.761824 0 0 1 -1.61404,13.56621 258.44322,258.44322 0 0 0 -26.68043,-1.40429 14.986543,14.986543 0 0 0 2.84885,-7.02923 38.818133,38.818133 0 0 0 0,-7.18255 l 17.30269,-0.0567 a 16.051822,16.051822 0 0 1 3.78501,0.28251 c 1.74323,0.39545 2.66324,1.50916 4.35792,1.82387 z"
         id="path63" />
      <path
         style="fill:#a0616a;stroke-width:0.80702978"
         inkscape:connector-curvature="0"
         d="m 696.08968,580.67514 c 0.88772,1.46072 1.96114,2.79234 2.94566,4.18846 a 59.784767,59.784767 0 0 1 4.84218,8.26396 c 1.74324,3.51865 3.30075,7.15034 5.41521,10.49146 a 28.601136,28.601136 0 0 1 3.03438,5.21332 16.78622,16.78622 0 0 1 0.87972,5.44751 c 0.0644,2.46147 -0.1534,5.10039 -1.61412,7.06152 a 6.4562384,6.4562384 0 0 1 -5.56851,2.47753 4.551648,4.551648 0 0 1 -2.89722,-1.25895 c -1.46071,-1.49302 -1.31546,-3.88989 -0.92808,-5.93975 0.27444,-1.43649 0.62144,-2.94566 0.1614,-4.3337 a 15.333565,15.333565 0 0 0 -1.00067,-1.99343 15.446551,15.446551 0 0 1 -1.22674,-4.9067 c -0.43573,-3.22817 -0.89579,-6.6903 -2.96988,-9.23241 -1.10562,-1.372 -2.60672,-2.37266 -3.6962,-3.75273 -0.57299,-0.72632 -1.02488,-1.54136 -1.61403,-2.2274 -0.86349,-0.98451 -2.06601,-1.73506 -2.56635,-2.94565 a 11.782636,11.782636 0 0 1 -0.45198,-2.4211 17.891851,17.891851 0 0 0 -1.42033,-3.76877 c -1.97719,-4.52748 -2.50983,-9.53915 -3.01025,-14.45392 a 20.482416,20.482416 0 0 0 6.21419,-1.22665 c -0.6699,0.12102 4.86632,14.28435 5.47162,15.3174 z"
         id="path65" />
      <path
         style="opacity:0.1;stroke-width:0.80702978"
         inkscape:connector-curvature="0"
         d="m 696.08968,580.67514 c 0.88772,1.46072 1.96114,2.79234 2.94566,4.18846 a 59.784767,59.784767 0 0 1 4.84218,8.26396 c 1.74324,3.51865 3.30075,7.15034 5.41521,10.49146 a 28.601136,28.601136 0 0 1 3.03438,5.21332 16.78622,16.78622 0 0 1 0.87972,5.44751 c 0.0644,2.46147 -0.1534,5.10039 -1.61412,7.06152 a 6.4562384,6.4562384 0 0 1 -5.56851,2.47753 4.551648,4.551648 0 0 1 -2.89722,-1.25895 c -1.46071,-1.49302 -1.31546,-3.88989 -0.92808,-5.93975 0.27444,-1.43649 0.62144,-2.94566 0.1614,-4.3337 a 15.333565,15.333565 0 0 0 -1.00067,-1.99343 15.446551,15.446551 0 0 1 -1.22674,-4.9067 c -0.43573,-3.22817 -0.89579,-6.6903 -2.96988,-9.23241 -1.10562,-1.372 -2.60672,-2.37266 -3.6962,-3.75273 -0.57299,-0.72632 -1.02488,-1.54136 -1.61403,-2.2274 -0.86349,-0.98451 -2.06601,-1.73506 -2.56635,-2.94565 a 11.782636,11.782636 0 0 1 -0.45198,-2.4211 17.891851,17.891851 0 0 0 -1.42033,-3.76877 c -1.97719,-4.52748 -2.50983,-9.53915 -3.01025,-14.45392 a 20.482416,20.482416 0 0 0 6.21419,-1.22665 c -0.6699,0.12102 4.86632,14.28435 5.47162,15.3174 z"
         id="path67" />
      <circle
         r="14.534608"
         style="fill:#a0616a;stroke-width:0.80702978"
         cx="662.27509"
         cy="480.15152"
         id="circle69" />
      <path
         style="fill:#a0616a;stroke-width:0.80702978"
         inkscape:connector-curvature="0"
         d="m 691.26364,628.36254 c 2.73581,3.22806 3.80924,7.55378 4.79375,11.68581 l 3.63169,15.18821 a 164.06108,164.06108 0 0 1 3.72041,18.69889 c 0.42767,3.57518 0.60521,7.2633 -0.58915,10.69313 a 22.161037,22.161037 0 0 1 -4.27727,6.83555 47.170892,47.170892 0 0 1 -14.04231,11.41955 c -2.84885,1.47685 -5.85901,2.60671 -8.78053,3.92208 -4.36599,1.96114 -8.5384,4.31764 -12.7107,6.67414 l -15.67249,8.87733 c -3.36533,1.90462 -6.76297,3.83346 -9.56328,6.4966 a 23.605622,23.605622 0 0 0 -5.8591,8.87733 4.4305936,4.4305936 0 0 1 -1.37997,2.28394 c -0.88772,0.61328 -2.09831,0.4116 -3.13126,0.0968 a 18.303436,18.303436 0 0 1 -12.50903,-18.33573 94.834071,94.834071 0 0 0 31.32086,-18.31152 c 6.99693,-6.15757 13.30792,-13.50151 21.84632,-17.24615 3.72849,-1.61404 8.2155,-2.88115 9.95873,-6.56928 a 13.461257,13.461257 0 0 0 0.91194,-5.38289 c 0.15331,-5.06003 0.30664,-10.17665 -0.66173,-15.14795 -0.80707,-4.19653 -2.42109,-8.20744 -3.60747,-12.31524 -2.4211,-8.22368 -3.22817,-16.8185 -4.03513,-25.35689 a 142.699,142.699 0 0 1 16.81042,-0.99268 1.9126607,1.9126607 0 0 1 1.38805,0.37123 2.0256447,2.0256447 0 0 1 0.42775,1.10573 c 0.45198,2.21934 0.55685,4.74531 2.0095,6.43201 z"
         id="path71" />
      <path
         style="opacity:0.1;stroke-width:0.80702978"
         inkscape:connector-curvature="0"
         d="m 691.26364,628.36254 c 2.73581,3.22806 3.80924,7.55378 4.79375,11.68581 l 3.63169,15.18821 a 164.06108,164.06108 0 0 1 3.72041,18.69889 c 0.42767,3.57518 0.60521,7.2633 -0.58915,10.69313 a 22.161037,22.161037 0 0 1 -4.27727,6.83555 47.170892,47.170892 0 0 1 -14.04231,11.41955 c -2.84885,1.47685 -5.85901,2.60671 -8.78053,3.92208 -4.36599,1.96114 -8.5384,4.31764 -12.7107,6.67414 l -15.67249,8.87733 c -3.36533,1.90462 -6.76297,3.83346 -9.56328,6.4966 a 23.605622,23.605622 0 0 0 -5.8591,8.87733 4.4305936,4.4305936 0 0 1 -1.37997,2.28394 c -0.88772,0.61328 -2.09831,0.4116 -3.13126,0.0968 a 18.303436,18.303436 0 0 1 -12.50903,-18.33573 94.834071,94.834071 0 0 0 31.32086,-18.31152 c 6.99693,-6.15757 13.30792,-13.50151 21.84632,-17.24615 3.72849,-1.61404 8.2155,-2.88115 9.95873,-6.56928 a 13.461257,13.461257 0 0 0 0.91194,-5.38289 c 0.15331,-5.06003 0.30664,-10.17665 -0.66173,-15.14795 -0.80707,-4.19653 -2.42109,-8.20744 -3.60747,-12.31524 -2.4211,-8.22368 -3.22817,-16.8185 -4.03513,-25.35689 a 142.699,142.699 0 0 1 16.81042,-0.99268 1.9126607,1.9126607 0 0 1 1.38805,0.37123 2.0256447,2.0256447 0 0 1 0.42775,1.10573 c 0.45198,2.21934 0.55685,4.74531 2.0095,6.43201 z"
         id="path73" />
      <path
         style="fill:#3f3d56;stroke-width:0.80702978"
         inkscape:connector-curvature="0"
         d="m 608.99502,728.49068 q 4.21268,7.48121 8.43352,14.9704 c 0.65365,1.15407 1.3074,2.31623 1.8481,3.52672 0.91193,2.05794 1.493,4.24498 2.52597,6.2464 a 31.102929,31.102929 0 0 0 4.35792,5.90744 l 5.50401,6.34329 a 7.4085335,7.4085335 0 0 0 2.12244,1.88847 2.5340735,2.5340735 0 0 0 2.69554,-0.12111 2.9375885,2.9375885 0 0 0 0.70209,-0.97644 5.9074581,5.9074581 0 0 0 0.56493,-2.88923 6.2060591,6.2060591 0 0 0 -2.00142,-4.28524 c -0.75862,-0.66183 -1.73514,-1.2106 -2.05794,-2.16291 a 4.035149,4.035149 0 0 1 -0.0969,-1.61404 c 0.39546,-4.72108 0.80706,-9.48262 2.18704,-14.00194 1.04113,-3.38148 2.65516,-6.85976 1.88039,-10.31382 -1.46879,-0.4439 -3.38148,-0.75054 -4.26113,0.50841 -1.71092,2.42109 -1.8158,1.53329 -4.45481,1.16205 -2.63891,-0.37123 -5.11653,-0.53263 -7.04537,-2.59854 -2.56635,-2.72784 -2.34843,-6.95666 -1.96912,-10.67708 -2.70351,-0.1291 -5.27793,0.84744 -7.72326,2.07409 -0.86349,0.43582 -1.70285,0.89579 -2.53404,1.35583 a 4.1642738,4.1642738 0 0 0 -1.22675,0.87965 c -1.10563,1.30739 -0.29856,3.28459 0.54878,4.7776 z"
         id="path75" />
      <path
         style="fill:#3f3d56;stroke-width:0.80702978"
         inkscape:connector-curvature="0"
         d="m 690.18222,616.23281 a 69.62246,69.62246 0 0 1 2.13061,9.01461 c 0.25013,1.67852 0.37124,3.3733 0.50033,5.06001 -5.73798,1.36391 -11.69388,1.42841 -17.59326,1.49301 l -24.59019,0.26636 a 52.868522,52.868522 0 0 1 -0.66981,-10.02333 c 0.34701,-5.51199 2.42111,-10.89489 2.07399,-16.40689 a 152.17354,152.17354 0 0 1 20.41791,-2.22741 9.5148813,9.5148813 0 0 1 3.70427,0.35508 c 1.11369,0.40354 2.04178,1.20243 3.11512,1.71094 2.42109,1.1459 6.02049,0.58097 8.07026,2.421 1.86425,1.719 2.17906,5.98012 2.84077,8.33662 z"
         id="path77" />
      <path
         style="opacity:0.1;stroke-width:0.80702978"
         inkscape:connector-curvature="0"
         d="m 690.18222,616.23281 a 69.62246,69.62246 0 0 1 2.13061,9.01461 c 0.25013,1.67852 0.37124,3.3733 0.50033,5.06001 -5.73798,1.36391 -11.69388,1.42841 -17.59326,1.49301 l -24.59019,0.26636 a 52.868522,52.868522 0 0 1 -0.66981,-10.02333 c 0.34701,-5.51199 2.42111,-10.89489 2.07399,-16.40689 a 152.17354,152.17354 0 0 1 20.41791,-2.22741 9.5148813,9.5148813 0 0 1 3.70427,0.35508 c 1.11369,0.40354 2.04178,1.20243 3.11512,1.71094 2.42109,1.1459 6.02049,0.58097 8.07026,2.421 1.86425,1.719 2.17906,5.98012 2.84077,8.33662 z"
         id="path79" />
      <path
         style="fill:#a0616a;stroke-width:0.80702978"
         inkscape:connector-curvature="0"
         d="m 688.78611,624.36768 c 1.85617,8.74823 -0.10499,17.79503 -0.56492,26.72888 -0.32289,6.39163 0.12909,12.79952 0.3147,19.19923 a 26.672335,26.672335 0 0 1 -0.25021,5.50391 27.777966,27.777966 0 0 1 -1.46071,4.72118 l -2.21126,5.8913 c -2.07409,5.53623 -4.18845,11.4679 -2.07409,17.23809 a 8.0702979,8.0702979 0 0 1 0.32289,4.65658 c -3.16357,13.22726 -0.31481,27.26958 0.13717,40.85992 a 9.869974,9.869974 0 0 0 0.68595,3.9141 c 1.12985,2.42111 3.91411,3.55096 5.37482,5.75414 1.77552,2.67132 1.13793,6.45623 -0.95231,8.87733 -2.09014,2.4211 -5.34252,3.62352 -8.53839,3.88989 -3.99476,0.33086 -7.9976,-0.6376 -11.91978,-1.2751 l -0.43584,-0.41968 c -0.49225,-2.71966 1.00076,-5.23766 1.4688,-8.02192 a 34.161571,34.161571 0 0 0 0.29866,-4.97936 c 0,-1.48494 0.0808,-2.97785 0,-4.4628 a 42.425556,42.425556 0 0 0 -0.6376,-4.49518 l -3.34111,-18.49713 -0.71825,-3.98678 -2.9941,-16.60866 c -0.56492,-3.13934 0.80707,-6.64992 1.1783,-9.81349 0.75054,-6.5611 1.50109,-13.1545 1.28318,-19.748 a 26.099344,26.099344 0 0 0 -0.6376,-5.3829 23.880012,23.880012 0 0 1 -0.75045,-5.00359 c -0.0481,-2.03372 -0.86359,-4.03513 -1.66248,-6.03655 -2.65516,-6.70644 -2.55029,-14.12306 -3.12329,-21.31369 a 16.50376,16.50376 0 0 0 -0.80697,-4.47894 c -0.80706,-2.1952 -2.48569,-3.95447 -3.79309,-5.89947 -1.3074,-1.94489 -2.29998,-4.37407 -1.55751,-6.60147 1.1782,-3.55903 6.01232,-4.69686 8.94182,-5.73799 a 25.147048,25.147048 0 0 1 15.63222,-0.52455 53.877308,53.877308 0 0 1 12.79145,6.0527 z"
         id="path81" />
      <path
         style="fill:#3f3d56;stroke-width:0.80702978"
         inkscape:connector-curvature="0"
         d="m 666.49589,778.00194 a 2.1870507,2.1870507 0 0 0 0.80707,0.8878 2.7196903,2.7196903 0 0 0 1.2751,0.18563 l 19.51393,-0.41969 a 42.013972,42.013972 0 0 1 7.1987,0.26627 c 1.89655,0.28251 3.75272,0.80707 5.64926,0.9523 4.43867,0.27444 8.65941,-1.75927 12.6461,-3.74463 a 3.2281191,3.2281191 0 0 0 1.54954,-1.23473 2.6228468,2.6228468 0 0 0 0,-1.90462 5.8590363,5.8590363 0 0 0 -2.17896,-3.15539 4.035149,4.035149 0 0 0 -0.39546,-0.25022 9.563303,9.563303 0 0 0 -3.48636,-0.90386 c -4.53556,-0.59723 -9.30509,-1.48494 -12.74299,-4.50327 -0.99268,-0.86348 -1.83195,-1.88039 -2.75196,-2.82462 a 47.840725,47.840725 0 0 0 -6.26254,-5.13269 2.2031913,2.2031913 0 0 0 -1.61413,-0.61337 2.057926,2.057926 0 0 0 -0.89579,0.51658 6.1899185,6.1899185 0 0 0 -2.12244,2.62276 2.4210893,2.4210893 0 0 0 1.04911,2.9296 c 0.80707,0.31471 1.61403,0.15332 2.27585,0.58905 -1.40428,1.01691 -3.57517,1.52532 -5.1569,2.5825 a 17.536757,17.536757 0 0 1 -5.18921,2.74398 c -1.90462,0.49225 -4.1724,0.15331 -5.4152,-1.37199 -0.6698,-0.80707 -1.51724,-2.07409 -2.4211,-1.53338 a 1.7270439,1.7270439 0 0 0 -0.6376,0.92807 25.114768,25.114768 0 0 0 -1.8481,6.93244 8.8773278,8.8773278 0 0 0 1.15408,5.45548 z"
         id="path83" />
      <path
         style="fill:#3f3d56;stroke-width:0.80702978"
         inkscape:connector-curvature="0"
         d="m 671.74969,573.69427 a 12.912477,12.912477 0 0 1 3.3492,0.37123 14.268286,14.268286 0 0 1 2.98601,1.37199 l 10.69313,5.9236 a 9.9748886,9.9748886 0 0 1 2.17089,1.46879 c 1.54146,1.47686 1.98527,3.7608 2.07408,5.89938 0.36317,8.31241 -3.38955,16.28587 -3.86566,24.59827 a 31.571005,31.571005 0 0 0 1.32345,10.97564 c 0.26637,0.87964 0.53272,1.95298 -0.11299,2.6148 a 2.4210893,2.4210893 0 0 1 -0.80707,0.48418 c -3.38138,1.31546 -7.0695,1.61403 -10.68505,1.8804 -8.87733,0.67787 -17.80301,1.35574 -26.63199,0.16946 a 3.058643,3.058643 0 0 1 -1.25895,-0.35509 3.2281191,3.2281191 0 0 1 -1.07332,-1.54953 q -1.67057,-3.91411 -3.22817,-7.84428 c -1.79966,-4.40645 -3.56701,-9.03881 -3.11512,-13.77604 0.56492,-5.87515 4.42252,-10.83837 6.67414,-16.30202 0.67788,-1.61404 1.2106,-3.32496 2.02565,-4.88247 a 40.35149,40.35149 0 0 1 3.05062,-4.58401 c 0.86349,-1.23473 1.69468,-4.03513 2.75195,-4.8421 1.29125,-1.05728 4.939,-1.03305 6.57725,-1.22675 a 55.685055,55.685055 0 0 1 7.10191,-0.39545 z"
         id="path85" />
      <path
         style="opacity:0.1;stroke-width:0.80702978"
         inkscape:connector-curvature="0"
         d="m 608.99502,728.49068 q 4.21268,7.48121 8.43352,14.9704 c 0.65365,1.15407 1.3074,2.31623 1.8481,3.52672 0.91193,2.05794 1.493,4.24498 2.52597,6.2464 a 31.102929,31.102929 0 0 0 4.35792,5.90744 l 5.50401,6.34329 a 7.4085335,7.4085335 0 0 0 2.12244,1.88847 2.5340735,2.5340735 0 0 0 2.69554,-0.12111 2.9375885,2.9375885 0 0 0 0.70209,-0.97644 5.9074581,5.9074581 0 0 0 0.56493,-2.88923 18.42449,18.42449 0 0 1 -5.34252,-3.93823 26.761107,26.761107 0 0 1 -3.11523,-4.67273 q -1.12976,-1.99335 -2.26767,-4.03513 -5.84296,-10.28162 -11.70197,-20.56315 a 23.339302,23.339302 0 0 1 -3.11512,-8.74016 c -0.86349,0.43583 -1.70285,0.89579 -2.53405,1.35584 a 4.1642738,4.1642738 0 0 0 -1.22674,0.87965 c -1.10563,1.34776 -0.29856,3.32496 0.54878,4.81797 z"
         id="path87" />
      <path
         style="opacity:0.1;stroke-width:0.80702978"
         inkscape:connector-curvature="0"
         d="m 666.49589,778.00194 a 2.1870507,2.1870507 0 0 0 0.80707,0.8878 2.7196903,2.7196903 0 0 0 1.2751,0.18563 l 19.51393,-0.41969 a 42.013972,42.013972 0 0 1 7.1987,0.26627 c 1.89655,0.28251 3.75272,0.80707 5.64926,0.9523 4.43867,0.27444 8.65941,-1.75927 12.6461,-3.74463 a 3.2281191,3.2281191 0 0 0 1.54954,-1.23473 2.6228468,2.6228468 0 0 0 0,-1.90462 5.8590363,5.8590363 0 0 0 -2.17896,-3.15539 c -0.28251,0.17753 -0.54878,0.37113 -0.80707,0.55675 a 23.03263,23.03263 0 0 1 -8.87733,4.03522 45.718237,45.718237 0 0 1 -9.57136,0.69403 c -7.36815,0 -14.79285,0.0481 -22.07229,-1.2751 -1.4688,-0.26636 -4.44675,-1.61403 -6.29484,-1.26702 a 8.8773278,8.8773278 0 0 0 1.16215,5.42318 z"
         id="path89" />
      <path
         style="fill:#ff6f61;stroke-width:0.80702978"
         inkscape:connector-curvature="0"
         d="m 644.79492,503.20029 a 144.99098,144.99098 0 0 0 21.38626,2.02563 c 1.76735,0 3.90604,-0.17754 4.68888,-1.75937 0.36315,-0.74248 0.33893,-1.66249 0.85541,-2.31614 0.96039,-1.21866 2.8972,-0.61337 4.27727,0.0884 1.93682,0.98451 3.96246,2.04986 5.11654,3.88988 a 12.977039,12.977039 0 0 1 1.44456,4.57585 c 0.67798,3.41368 1.70286,6.98078 4.29342,9.30507 1.3397,1.20243 3.0264,1.98527 4.31765,3.22808 2.09014,2.0337 2.90527,5.08434 2.90527,7.99768 0,2.91335 -0.69401,5.77836 -1.21857,8.65135 a 70.13089,70.13089 0 0 0 1.61404,31.84541 2.1870507,2.1870507 0 0 1 0.11298,1.15408 c -0.20177,0.74247 -1.10563,1.00873 -1.87232,1.12976 -11.83913,1.95306 -24.54983,0.10499 -35.44472,5.13278 -0.91195,-2.24356 -3.1555,-3.51057 -4.2692,-5.64926 -0.89579,-1.73505 -0.80697,-3.80107 -1.00873,-5.74607 -0.65375,-5.2537 -4.03524,-9.73273 -5.90746,-14.67981 -1.67056,-4.3338 -2.25163,-9.10331 -4.584,-13.1223 -0.80697,-1.42044 -1.86425,-2.71976 -2.6793,-4.15625 a 31.877677,31.877677 0 0 1 -1.91269,-4.40637 31.102929,31.102929 0 0 1 -2.21125,-8.11063 c -0.46804,-5.64927 2.15483,-11.04822 5.25379,-15.76132 1.20243,-1.80773 2.69545,-3.68005 4.8422,-3.31689 z"
         id="path91" />
      <path
         style="opacity:0.1;fill:none;stroke:#000000;stroke-width:0.80702978;stroke-miterlimit:10"
         inkscape:connector-curvature="0"
         d="m 679.08556,523.28722 c 1.35585,0.29856 2.14666,1.66248 2.77619,2.89721 a 15.333565,15.333565 0 0 1 1.06526,2.42109 13.977756,13.977756 0 0 1 0.4439,4.3338 10.136294,10.136294 0 0 1 -0.29048,2.75195 3.6477747,3.6477747 0 0 1 -1.61413,2.17897"
         stroke-miterlimit="10"
         id="path93" />
      <ellipse
         style="fill:#3f3d56;stroke-width:0.80702978"
         cx="521.78296"
         cy="618.09827"
         rx="16.245508"
         ry="8.0218754"
         transform="rotate(-14.34)"
         id="ellipse95" />
      <path
         style="opacity:0.1;stroke-width:0.80702978"
         inkscape:connector-curvature="0"
         d="m 659.72495,474.42961 c 7.73132,-1.97719 13.45316,-6.36741 13.8567,-10.32997 a 4.2933985,4.2933985 0 0 1 0.75862,1.52531 c 1.09755,4.29342 -5.06012,9.57135 -13.71953,11.79876 -8.65942,2.22741 -16.63289,0.5407 -17.75467,-3.75272 a 4.035149,4.035149 0 0 1 -0.10487,-1.46071 c 2.39687,3.13127 9.39381,4.15625 16.96375,2.21933 z"
         id="path97" />
      <path
         style="fill:#3acc6c;stroke-width:0.80702978"
         inkscape:connector-curvature="0"
         d="m 645.65841,621.34137 -2.03372,2.03372 6.53698,6.53688 14.52649,-14.5265 -2.03371,-2.03371 -12.49278,12.4202 z m 17.57712,2.76004 a 11.572807,11.572807 0 1 1 -8.42546,-11.14511 l 2.25164,-2.25163 a 13.509679,13.509679 0 0 0 -5.4474,-1.08948 14.526537,14.526537 0 1 0 14.5265,14.52659 z"
         id="path99" />
      <path
         style="fill:#a0616a;stroke-width:0.80702978"
         inkscape:connector-curvature="0"
         d="m 651.21078,527.56448 a 25.017924,25.017924 0 0 0 -4.03513,-11.38714 9.8457629,9.8457629 0 0 0 -3.66391,-3.55096 4.5193669,4.5193669 0 0 0 -4.84219,0.37931 6.9808077,6.9808077 0 0 0 -1.7513,3.22807 38.737429,38.737429 0 0 0 -2.56634,16.38277 c 0,5.08424 0.073,10.23307 1.35584,15.15602 0.7344,2.79233 1.85617,5.4797 2.4211,8.3124 0.56492,2.8326 0.49225,5.93975 -1.02499,8.39305 a 21.216814,21.216814 0 0 0 -2.71965,6.17382 30.078,30.078 0 0 0 -0.49226,7.98961 l 0.20975,7.35202 c 0.26635,9.5875 0.53272,19.2719 -1.38804,28.6657 -0.87157,4.29342 -3.06669,8.34471 -2.56636,12.69455 a 18.238874,18.238874 0 0 0 1.3397,4.55978 c 0.80697,2.09822 1.8158,4.36599 3.8253,5.38281 a 7.5780097,7.5780097 0 0 0 3.10704,0.67796 21.224884,21.224884 0 0 0 3.98678,-0.16946 c 0.80697,-0.11311 1.85607,-0.65375 1.61404,-1.42852 a 1.5656378,1.5656378 0 0 0 -0.56493,-0.62942 8.8773278,8.8773278 0 0 1 -3.31689,-6.89206 c 0,-3.80915 2.4856,-7.46506 1.71891,-11.19346 -0.47611,-2.30816 -2.17897,-4.54364 -1.4688,-6.78719 1.61413,-5.06809 1.82397,-10.49137 3.22817,-15.65635 l 1.35584,-5.03589 c 0.80697,-3.00218 1.61404,-5.99617 2.26768,-9.03065 a 98.933785,98.933785 0 0 0 2.17906,-25.56673 c -0.0567,-1.33959 0.68595,-2.86491 0.80697,-4.19652 0.1292,-1.61404 0,-3.16358 0,-4.73724 -0.0163,-6.50467 1.63019,-12.61388 0.98461,-19.08628 z"
         id="path101" />
    </g>
  </g>
</svg>
